<svg xmlns="http://www.w3.org/2000/svg" viewBox="0 0 31.768 29.325"><defs><style>.a{fill:#fff;}</style></defs><g transform="translate(0 -18.27)"><g transform="translate(0 18.27)"><path class="a" d="M31.234,311.168a1.767,1.767,0,0,0-1.3-.535H21.077l-2.6,2.6a3.687,3.687,0,0,1-5.193,0l-2.577-2.6H1.833a1.769,1.769,0,0,0-1.3.535,1.767,1.767,0,0,0-.535,1.3v6.109a1.767,1.767,0,0,0,.535,1.3,1.768,1.768,0,0,0,1.3.534h28.1a1.825,1.825,0,0,0,1.832-1.832v-6.109A1.766,1.766,0,0,0,31.234,311.168ZM24.075,317.6a1.2,1.2,0,1,1,.362-.859A1.175,1.175,0,0,1,24.075,317.6Zm4.887,0a1.2,1.2,0,1,1,.363-.859A1.174,1.174,0,0,1,28.962,317.6Z" transform="translate(0 -291.083)"/><path class="a" d="M100,38.679a1.2,1.2,0,0,0,1.718,0l8.553-8.553a1.1,1.1,0,0,0,.267-1.336,1.141,1.141,0,0,0-1.126-.745h-4.888V19.492a1.239,1.239,0,0,0-1.222-1.222H98.418A1.239,1.239,0,0,0,97.2,19.492v8.553H92.308a1.142,1.142,0,0,0-1.126.745,1.1,1.1,0,0,0,.267,1.336Z" transform="translate(-84.977 -18.27)"/></g></g></svg>