<svg xmlns="http://www.w3.org/2000/svg" viewBox="0 0 96 28.525"><defs><style>.a{fill:#025;}.b{fill:#18174c;}.c,.d{fill:none;stroke-miterlimit:10;}.c{stroke:#025;}.d{stroke:#18174c;}</style></defs><circle class="a" cx="1.771" cy="1.771" r="1.771" transform="translate(76.162 14.209)"/><circle class="a" cx="2.834" cy="2.834" r="2.834" transform="translate(90.332 11.021)"/><circle class="b" cx="3.011" cy="3.011" r="3.011" transform="translate(0 1.811)"/><circle class="a" cx="2.125" cy="2.125" r="2.125" transform="translate(19.838 21.294)"/><circle class="b" cx="1.063" cy="1.063" r="1.063" transform="translate(37.196 14.563)"/><path class="c" d="M103.747,69.611H85.858L81.182,64.9H68.5" transform="translate(-44.234 -41.587)"/><path class="c" d="M67.262,17.2H33.255l-3.542,4.605H16.251L12,17.2" transform="translate(-7.749 -10.784)"/><line class="d" x1="20.546" transform="translate(38.613 15.626)"/><path class="c" d="M100,.5l25.683.071L131,5.885h20.192l4.959,6.022" transform="translate(-64.576)"/><path class="c" d="M141,51.451h20.546l6.022-4.251" transform="translate(-91.052 -30.157)"/></svg>